<mxfile host="app.diagrams.net" modified="2022-12-02T09:21:16.428Z" agent="5.0 (Windows NT 10.0; Win64; x64) AppleWebKit/537.36 (KHTML, like Gecko) Chrome/107.0.0.0 Safari/537.36 Edg/107.0.1418.62" etag="cmID-GauPYXN17-Np0La" version="20.3.0" type="github">
  <diagram id="czoSAgU3NPNLfObNdLdK" name="第 1 页">
    <mxGraphModel dx="626" dy="374" grid="1" gridSize="10" guides="1" tooltips="1" connect="1" arrows="1" fold="1" page="1" pageScale="1" pageWidth="827" pageHeight="1169" math="0" shadow="1">
      <root>
        <mxCell id="0" />
        <mxCell id="1" parent="0" />
        <mxCell id="0-ui4EY68smGS95Qzv1E-1" value="Actor" style="shape=umlActor;verticalLabelPosition=bottom;verticalAlign=top;html=1;outlineConnect=0;" vertex="1" parent="1">
          <mxGeometry x="370" y="10" width="30" height="60" as="geometry" />
        </mxCell>
        <mxCell id="0-ui4EY68smGS95Qzv1E-4" value="" style="endArrow=none;dashed=1;html=1;rounded=0;" edge="1" parent="1">
          <mxGeometry width="50" height="50" relative="1" as="geometry">
            <mxPoint x="10" y="400" as="sourcePoint" />
            <mxPoint x="810" y="400" as="targetPoint" />
          </mxGeometry>
        </mxCell>
        <mxCell id="0-ui4EY68smGS95Qzv1E-12" style="edgeStyle=orthogonalEdgeStyle;rounded=0;orthogonalLoop=1;jettySize=auto;html=1;fontSize=27;" edge="1" parent="1" source="0-ui4EY68smGS95Qzv1E-5">
          <mxGeometry relative="1" as="geometry">
            <mxPoint x="480" y="270" as="targetPoint" />
            <Array as="points">
              <mxPoint x="385" y="270" />
            </Array>
          </mxGeometry>
        </mxCell>
        <mxCell id="0-ui4EY68smGS95Qzv1E-5" value="控制台" style="rounded=1;whiteSpace=wrap;html=1;" vertex="1" parent="1">
          <mxGeometry x="274.37" y="100" width="221.25" height="90" as="geometry" />
        </mxCell>
        <mxCell id="0-ui4EY68smGS95Qzv1E-20" style="edgeStyle=orthogonalEdgeStyle;rounded=0;orthogonalLoop=1;jettySize=auto;html=1;exitX=0.5;exitY=1;exitDx=0;exitDy=0;entryX=0.5;entryY=0;entryDx=0;entryDy=0;fontSize=27;" edge="1" parent="1" source="0-ui4EY68smGS95Qzv1E-6" target="0-ui4EY68smGS95Qzv1E-14">
          <mxGeometry relative="1" as="geometry" />
        </mxCell>
        <mxCell id="0-ui4EY68smGS95Qzv1E-6" value="gpaas-io" style="rounded=1;whiteSpace=wrap;html=1;" vertex="1" parent="1">
          <mxGeometry x="340" y="160" width="90" height="30" as="geometry" />
        </mxCell>
        <mxCell id="0-ui4EY68smGS95Qzv1E-13" value="" style="edgeStyle=orthogonalEdgeStyle;rounded=0;orthogonalLoop=1;jettySize=auto;html=1;fontSize=27;" edge="1" parent="1" source="0-ui4EY68smGS95Qzv1E-7" target="0-ui4EY68smGS95Qzv1E-11">
          <mxGeometry relative="1" as="geometry" />
        </mxCell>
        <mxCell id="0-ui4EY68smGS95Qzv1E-7" value="&lt;font style=&quot;font-size: 18px;&quot;&gt;Kubernetes&lt;br&gt;APIServer&lt;/font&gt;" style="rounded=1;whiteSpace=wrap;html=1;" vertex="1" parent="1">
          <mxGeometry x="480" y="240" width="140" height="60" as="geometry" />
        </mxCell>
        <mxCell id="0-ui4EY68smGS95Qzv1E-9" value="&lt;font style=&quot;font-size: 27px;&quot;&gt;Cloud&lt;/font&gt;" style="text;html=1;strokeColor=none;fillColor=none;align=center;verticalAlign=middle;whiteSpace=wrap;rounded=0;fontSize=18;" vertex="1" parent="1">
          <mxGeometry x="60" y="340" width="60" height="30" as="geometry" />
        </mxCell>
        <mxCell id="0-ui4EY68smGS95Qzv1E-10" value="&lt;div style=&quot;text-align: center;&quot;&gt;&lt;span style=&quot;background-color: initial;&quot;&gt;Edge&lt;/span&gt;&lt;/div&gt;" style="text;whiteSpace=wrap;html=1;fontSize=27;" vertex="1" parent="1">
          <mxGeometry x="50" y="420" width="100" height="60" as="geometry" />
        </mxCell>
        <mxCell id="0-ui4EY68smGS95Qzv1E-11" value="&lt;span style=&quot;font-size: 18px;&quot;&gt;自定义资源对象&lt;br&gt;用于存储纳管的边缘信息&lt;br&gt;&lt;/span&gt;" style="rounded=1;whiteSpace=wrap;html=1;" vertex="1" parent="1">
          <mxGeometry x="670" y="240" width="150" height="60" as="geometry" />
        </mxCell>
        <mxCell id="0-ui4EY68smGS95Qzv1E-17" value="" style="edgeStyle=orthogonalEdgeStyle;rounded=0;orthogonalLoop=1;jettySize=auto;html=1;fontSize=27;" edge="1" parent="1" source="0-ui4EY68smGS95Qzv1E-14" target="0-ui4EY68smGS95Qzv1E-15">
          <mxGeometry relative="1" as="geometry" />
        </mxCell>
        <mxCell id="0-ui4EY68smGS95Qzv1E-21" style="edgeStyle=orthogonalEdgeStyle;rounded=0;orthogonalLoop=1;jettySize=auto;html=1;exitX=0;exitY=0.5;exitDx=0;exitDy=0;entryX=0;entryY=0.5;entryDx=0;entryDy=0;fontSize=27;" edge="1" parent="1" source="0-ui4EY68smGS95Qzv1E-14" target="0-ui4EY68smGS95Qzv1E-16">
          <mxGeometry relative="1" as="geometry">
            <Array as="points">
              <mxPoint x="140" y="505" />
              <mxPoint x="140" y="750" />
            </Array>
          </mxGeometry>
        </mxCell>
        <mxCell id="0-ui4EY68smGS95Qzv1E-14" value="gpass-io" style="rounded=1;whiteSpace=wrap;html=1;fontSize=27;" vertex="1" parent="1">
          <mxGeometry x="277.18" y="470" width="215.63" height="70" as="geometry" />
        </mxCell>
        <mxCell id="0-ui4EY68smGS95Qzv1E-18" value="" style="edgeStyle=orthogonalEdgeStyle;rounded=0;orthogonalLoop=1;jettySize=auto;html=1;fontSize=27;" edge="1" parent="1" source="0-ui4EY68smGS95Qzv1E-15" target="0-ui4EY68smGS95Qzv1E-16">
          <mxGeometry relative="1" as="geometry" />
        </mxCell>
        <mxCell id="0-ui4EY68smGS95Qzv1E-15" value="&lt;font style=&quot;font-size: 18px;&quot;&gt;Kubernetes&lt;br&gt;APIServer&lt;/font&gt;" style="rounded=1;whiteSpace=wrap;html=1;" vertex="1" parent="1">
          <mxGeometry x="280" y="600" width="210" height="60" as="geometry" />
        </mxCell>
        <mxCell id="0-ui4EY68smGS95Qzv1E-16" value="&lt;span style=&quot;font-size: 18px;&quot;&gt;自定义资源对象&lt;br&gt;用于存储云平台地址&lt;br&gt;&lt;/span&gt;" style="rounded=1;whiteSpace=wrap;html=1;" vertex="1" parent="1">
          <mxGeometry x="279.99" y="720" width="210" height="60" as="geometry" />
        </mxCell>
        <mxCell id="0-ui4EY68smGS95Qzv1E-22" value="&lt;font style=&quot;font-size: 17px;&quot;&gt;监听资源变化&lt;/font&gt;" style="text;html=1;strokeColor=none;fillColor=none;align=center;verticalAlign=middle;whiteSpace=wrap;rounded=0;fontSize=27;" vertex="1" parent="1">
          <mxGeometry x="150" y="590" width="110" height="30" as="geometry" />
        </mxCell>
        <mxCell id="0-ui4EY68smGS95Qzv1E-27" value="注册、保活" style="text;html=1;strokeColor=none;fillColor=none;align=center;verticalAlign=middle;whiteSpace=wrap;rounded=0;fontSize=17;" vertex="1" parent="1">
          <mxGeometry x="250" y="420" width="100" height="30" as="geometry" />
        </mxCell>
        <mxCell id="0-ui4EY68smGS95Qzv1E-28" value="下发云端地址&lt;br&gt;携带边缘ID以及密钥" style="text;html=1;strokeColor=none;fillColor=none;align=center;verticalAlign=middle;whiteSpace=wrap;rounded=0;fontSize=17;" vertex="1" parent="1">
          <mxGeometry x="380" y="340" width="180" height="30" as="geometry" />
        </mxCell>
        <mxCell id="0-ui4EY68smGS95Qzv1E-30" value="" style="endArrow=classic;html=1;rounded=0;fontSize=17;exitX=0.4;exitY=0.004;exitDx=0;exitDy=0;exitPerimeter=0;entryX=0.25;entryY=1;entryDx=0;entryDy=0;" edge="1" parent="1" source="0-ui4EY68smGS95Qzv1E-14" target="0-ui4EY68smGS95Qzv1E-6">
          <mxGeometry width="50" height="50" relative="1" as="geometry">
            <mxPoint x="420" y="390" as="sourcePoint" />
            <mxPoint x="360" y="200" as="targetPoint" />
          </mxGeometry>
        </mxCell>
      </root>
    </mxGraphModel>
  </diagram>
</mxfile>
